<svg id="Layer_1" data-name="Layer 1" xmlns="http://www.w3.org/2000/svg" xmlns:xlink="http://www.w3.org/1999/xlink" viewBox="0 0 390 381"><defs><style>.cls-1{fill:none;}.cls-2{fill:#fff;}.cls-10,.cls-2,.cls-3,.cls-4,.cls-5{fill-rule:evenodd;}.cls-3{fill:#3bc1e0;opacity:0.68;}.cls-4{fill:url(#linear-gradient);}.cls-6{clip-path:url(#clip-path);}.cls-7{clip-path:url(#clip-path-2);}.cls-8{clip-path:url(#clip-path-3);}.cls-9{clip-path:url(#clip-path-4);}.cls-10{fill:#fbf2f5;}.cls-11{opacity:0.52;}.cls-12{clip-path:url(#clip-path-5);}.cls-13{clip-path:url(#clip-path-6);}</style><linearGradient id="linear-gradient" x1="17.66" y1="33.9" x2="17.66" gradientUnits="userSpaceOnUse"><stop offset="0" stop-color="#fff"/><stop offset="0" stop-color="#f6fbfe"/><stop offset="0" stop-color="#e4f3fc"/><stop offset="0" stop-color="#e3f3fc"/><stop offset="0.24" stop-color="#d8effb"/><stop offset="0.65" stop-color="#bbe3f8"/><stop offset="1" stop-color="#9ed7f5"/></linearGradient><clipPath id="clip-path"><rect class="cls-1" x="58.02" y="240.75" width="289.71" height="94.55"/></clipPath><clipPath id="clip-path-2"><rect class="cls-1" x="47.75" y="42.35" width="137.54" height="247.21"/></clipPath><clipPath id="clip-path-3"><rect class="cls-1" x="180.52" y="40.97" width="173.66" height="218.23"/></clipPath><clipPath id="clip-path-4"><rect class="cls-1" x="28.66" y="30.85" width="332.68" height="319.3"/></clipPath><clipPath id="clip-path-5"><rect class="cls-1" x="65.28" y="146.21" width="146.41" height="56.32"/></clipPath><clipPath id="clip-path-6"><rect class="cls-1" x="118.53" y="266.18" width="106.77" height="64.87"/></clipPath><symbol id="l" data-name="l" viewBox="0 0 30.76 10.04"><path class="cls-5" d="M3.91,7.66q-6.3-.3-2.45-2a58.19,58.19,0,0,0,8.2-4.5A7.42,7.42,0,0,1,13.31,0c.77,0,2.58,0,5.45.25a56.19,56.19,0,0,1,8,1.05c3,.6,4.33,1.16,4,1.7s-2,1.75-5.05,3.65A42.2,42.2,0,0,1,19.61,10c-.67.23-2.73,0-6.2-.8A64.18,64.18,0,0,0,3.91,7.66Z"/></symbol><symbol id="k" data-name="k" viewBox="0 0 14.6 26.25"><path class="cls-2" d="M13.25,0c.6-.3,1,2.44,1.2,8.2q.15,4.45.15,10.25a2.48,2.48,0,0,1-1.35,2.2c-1.43.7-2.65,1.29-3.65,1.75s-2.72,1.5-5.15,3q-3,1.6-3.3.1A77,77,0,0,1,.4,17C.27,14.66.13,12.07,0,9.27c0-.6,1.1-1.71,3.4-3.35Q5.31,4.57,9,2.22A22.05,22.05,0,0,1,11.5.77C12.53.34,13.12.09,13.25,0Z"/></symbol><symbol id="j" data-name="j" viewBox="0 0 18.44 23.17"><path class="cls-2" d="M17.85,8.07c-.23,3.4-.35,5.23-.35,5.5s.25,2.33.75,5.9c.34,2.43.22,3.67-.35,3.7a29.43,29.43,0,0,1-4.75-.8,59.74,59.74,0,0,0-6.1-1.15q-3,0-4,0a1.82,1.82,0,0,1-1.9-1.35,51,51,0,0,1-.45-7q0-3-.15-6.95C.34,4.34.2,3.19.1,2.42-.06,1,0,.24.2.17A7.44,7.44,0,0,1,3.9.32c2.47.53,4.09.83,4.85.9q4.46.5,5.65.7,2.91.56,3.3,1.65A12.57,12.57,0,0,1,17.85,8.07Z"/></symbol><symbol id="i" data-name="i" viewBox="0 0 35.32 33.9"><path class="cls-4" d="M26.48,1.39q7.05,1,8.35,2.6c.37.44.48,1.47.35,3.1q-.45,5.1-.5,6.3a71.22,71.22,0,0,0,.4,7.7,25.35,25.35,0,0,1,.2,4.5c-.1.44-1.17,1.29-3.2,2.55-2.8,1.7-4.38,2.69-4.75,2.95-1.6,1.2-2.63,1.94-3.1,2.2a5.85,5.85,0,0,1-3.5.55q-1.39-.2-6.2-1.4c-3.17-.76-5.23-1.21-6.2-1.35-1.94-.2-3.3-.38-4.1-.55Q2.28,30.15,2,29q-.34-1.39-.85-11.85c0-.36-.28-1.88-.75-4.55a11.66,11.66,0,0,1-.3-4C.21,8.31,1.2,7.59,3,6.49q4.5-2.6,5.6-3.35Q14.78-1,18.43.29A78.9,78.9,0,0,0,26.48,1.39Z"/></symbol><symbol id="h" data-name="h" viewBox="0 0 15.54 5.98"><path class="cls-3" d="M10.39.64q3.75.9,4.75,2.15c.6.8.53,1.24-.2,1.3a23.9,23.9,0,0,1-4.6-.5,11.31,11.31,0,0,0-4.5-.15,22.33,22.33,0,0,0-2.7,1.15A11.25,11.25,0,0,0,1,5.94c-.37.17-.67-.25-.9-1.25a3.53,3.53,0,0,1,.55-3.1A3.4,3.4,0,0,1,3,.14,20.26,20.26,0,0,1,10.39.64Z"/></symbol><symbol id="g" data-name="g" viewBox="0 0 11.34 6.89"><path class="cls-2" d="M10.84,1.36q0,.35.45,3.75c.1.93.05,1.46-.15,1.6-.4,0-.82.08-1.25.15a12.61,12.61,0,0,1-3.55-.4L2.19,5.61a5.65,5.65,0,0,1-2.1-.7c-.3-.3.18-.45,1.45-.45a13,13,0,0,0,2.25-.15,7.22,7.22,0,0,1,1.9-.2A6.32,6.32,0,0,0,8,3.81a2.51,2.51,0,0,0,1-1.1,24.72,24.72,0,0,0,1-2.4C10.32-.33,10.6,0,10.84,1.36Z"/></symbol></defs><title>is</title><g class="cls-6"><use width="30.76" height="10.04" transform="translate(47.6 242.17) scale(9.42)" xlink:href="#l"/></g><g class="cls-7"><use width="14.6" height="26.25" transform="translate(47.45 44.93) scale(9.42)" xlink:href="#k"/></g><g class="cls-8"><use width="18.44" height="23.17" transform="translate(179.93 41.25) scale(9.42)" xlink:href="#j"/></g><g class="cls-9"><use width="35.32" height="33.9" transform="translate(27.82 31.87) scale(9.42)" xlink:href="#i"/></g><path class="cls-10" d="M239.89,113.66q41-7.05,92.3-33Q317.59,93,288.87,110.84q-18.84,11.76-24.49,24Q263,137.68,255,168.29,247,198,241.3,304.39q-6.59-35.33-6.59-61.22A435.15,435.15,0,0,0,230.94,190q-4.23-34.38-9.89-41-5.16-6.12-24.48-9.89-29.67-4.23-52.75-8-36.72-5.19-52.74-3.77-18.83,2.36-27.78,14.6-10.81,16.42-11.77,65V198q0-8.94-3.3-40-3.78-31.08-3.77-37.67,0-9,22.13-24.49a278.84,278.84,0,0,1,37.68-21.66q4.7-2.37,35.79-19.31,22.6-12.26,30.61-14.6,13.64-3.76,36.72,5.18a121.74,121.74,0,0,0-24.49,2.83q-26.84,4.7-65,31.08-25,17-19.3,25.43,4.69,6.58,33,8.94,45.68,3.3,51.8,3.3A297.8,297.8,0,0,0,239.89,113.66Z"/><path class="cls-10" d="M53.88,251.17q1.41,7.07,8.48,15.07C66.75,271,69,274.57,69,277.07q0,8.48-9.42,17.89l-1.41-4.23Z"/><path class="cls-10" d="M342.08,205q.93-15.54,2.83-23.07,2.34-7.53,2.35,8,0,10.85,4.24,44.27,2.34,29.19-4.24,34.84-10.83,9.42-52.75,33.91,24.48-23.09,39.08-42.38Q343,248.82,343,231.86,341.62,213.5,342.08,205Z"/><g class="cls-11"><g class="cls-12"><use width="15.54" height="5.98" transform="translate(63.77 147.44) scale(9.42)" xlink:href="#h"/></g></g><g class="cls-13"><use width="11.34" height="6.89" transform="translate(116.51 266.83) scale(9.42)" xlink:href="#g"/></g></svg>