<svg id="Layer_1" data-name="Layer 1" xmlns="http://www.w3.org/2000/svg" viewBox="0 0 792 556"><defs><style>.cls-1{fill:#4d4d4d;}.cls-2{fill:#333;}.cls-3{fill:#ccc;}.cls-4{fill:#2e6692;}.cls-4,.cls-5,.cls-6,.cls-7{stroke:#000;stroke-miterlimit:10;stroke-width:4px;}.cls-5{fill:#fff;}.cls-5,.cls-6{opacity:0.8;}.cls-6{fill:#72ffff;}.cls-7{fill:none;}</style></defs><title>gauge</title><ellipse class="cls-1" cx="396" cy="567.5" rx="390.5" ry="395.5"/><ellipse class="cls-2" cx="396" cy="567.5" rx="360.82" ry="365.44"/><ellipse class="cls-3" cx="396" cy="567.13" rx="342.78" ry="347.17"/><path class="cls-4" d="M731.92,567C731.65,379.33,581.36,227.27,396,227.27S60.35,379.33,60.08,567Z"/><path class="cls-5" d="M561.22,271c162.4,94.06,218.94,300.25,126.25,460.78S388,946.47,225.3,852.87Z"/><path class="cls-6" d="M231.34,271.57C68.94,365.63,12.4,571.82,105.09,732.35S404.59,947,567.26,853.4Z"/><line class="cls-7" x1="61" y1="556" x2="732" y2="556"/><path d="M377.14,249.28h1.76L373.43,275h-2.09l-3.92-19.23c-.07-.32-.28-1.72-.62-4.2l-.24,1.67-.41,2.49L362.3,275h-2l-5.52-25.7h1.81l3.63,17.7c.56,2.89.92,4.9,1.09,6,.25-1.88.59-3.87,1-6l3.6-17.77h1.95l3.59,17.7c.37,1.92.64,3.51.81,4.75l.17,1.3c.34-2.47.68-4.49,1-6Z"/><path d="M391.62,275l-2.26-9.32h-6.24L380.88,275h-1.79l6.19-25.7h1.77l6.33,25.7ZM389,263.92l-2.27-9.58c-.23-1.07-.41-2.09-.54-3.05a29.74,29.74,0,0,1-.49,3.05l-2.2,9.58Z"/><path d="M400.46,275h-1.72V250.93h-5.11v-1.65h11.95v1.65h-5.12Z"/><path d="M418,275h-9.32v-25.7H418v1.65h-7.6v9.76h7.18v1.65h-7.18v11H418Z"/><path d="M424.27,263.75V275h-1.73v-25.7h3.52q3.76,0,5.5,1.78a7.29,7.29,0,0,1,1.74,5.31,9.06,9.06,0,0,1-.95,4.39,5.8,5.8,0,0,1-3.18,2.58l5.1,11.64h-1.94l-4.79-11.23Zm0-1.58h2.4a4.54,4.54,0,0,0,3.61-1.45,6.34,6.34,0,0,0,1.26-4.28,5.74,5.74,0,0,0-1.29-4.19,5.61,5.61,0,0,0-4.07-1.28h-1.91Z"/><path d="M134.68,437.85l-22.22-12.91.87-1.49,22.22,12.91Z"/><path d="M120.88,412.93c-1,1.68-.86,3.52.33,5.54a17.67,17.67,0,0,0,6.49,5.75,21.39,21.39,0,0,0,5.72,2.4,9.07,9.07,0,0,0,4.62.07,4.85,4.85,0,0,0,2.94-2.26,7.56,7.56,0,0,0,1.1-3.34l1.37.79a7.16,7.16,0,0,1-1.12,3.51,6.36,6.36,0,0,1-3.52,2.91,10.17,10.17,0,0,1-5.39.16,22.58,22.58,0,0,1-6.65-2.71q-5.33-3.09-7.26-6.75a6.73,6.73,0,0,1,0-6.93,7.61,7.61,0,0,1,3-3l.91,1.44A6.08,6.08,0,0,0,120.88,412.93Z"/><path d="M150.65,410.37,146,418.42l-22.22-12.91,4.68-8.05,1.43.83L126,404.85l8.44,4.9,3.6-6.2,1.43.83-3.6,6.2,9.5,5.52,3.81-6.56Z"/><path d="M655.82,402.67l2.82,4.87-10.54,6.08a16.63,16.63,0,0,1-4-4.71,7.36,7.36,0,0,1-.21-7.4q1.88-3.76,7.29-6.89t9.6-2.77a7.7,7.7,0,0,1,6.35,4.11,9.93,9.93,0,0,1,1.32,5.59l-1.72,0a8.68,8.68,0,0,0-1-4.82,6,6,0,0,0-5.29-3.25q-3.49-.12-8.38,2.7t-6.47,5.9a5.89,5.89,0,0,0,0,6.1,12,12,0,0,0,2.67,3.32l8.1-4.68-2-3.36Z"/><path d="M654.69,426.61l6.93-6.62-3.12-5.41-9.18,2.73-.9-1.56,25.35-7.49.89,1.54-19.09,18.33Zm8.24-7.84,7.16-6.76c.82-.74,1.61-1.41,2.37-2a25.7,25.7,0,0,1-2.89,1.1l-9.4,2.89Z"/><path d="M667.73,435.74a7.4,7.4,0,0,1-5.31,1,5.7,5.7,0,0,1-3.93-2.89,11.51,11.51,0,0,1-1.7-4.72l1.62-.93a8.28,8.28,0,0,0,.43,2.36,12.23,12.23,0,0,0,1.08,2.47,4,4,0,0,0,2.91,2.05,6.51,6.51,0,0,0,6.39-3.27,9.12,9.12,0,0,0,.45-4.21,12.55,12.55,0,0,1,.2-3.55,5.72,5.72,0,0,1,1.17-2.35,8.4,8.4,0,0,1,2.34-1.91,7.27,7.27,0,0,1,3.32-1,5.67,5.67,0,0,1,3.06.73,5.87,5.87,0,0,1,2.23,2.22,10.29,10.29,0,0,1,1.07,2.52,9.36,9.36,0,0,1,.34,2l-1.77.25a8.48,8.48,0,0,0-1.12-3.94,4,4,0,0,0-2.66-2,4.86,4.86,0,0,0-3.55.68,5.63,5.63,0,0,0-2.48,2.43,9.65,9.65,0,0,0-.46,4.16,9.74,9.74,0,0,1-.66,4.78A7,7,0,0,1,667.73,435.74Z"/></svg>