<svg id="Layer_1" data-name="Layer 1" xmlns="http://www.w3.org/2000/svg" xmlns:xlink="http://www.w3.org/1999/xlink" viewBox="0 0 390 280"><defs><style>.cls-1,.cls-10,.cls-3,.cls-4,.cls-7,.cls-8,.cls-9{opacity:0.7;}.cls-1{fill:url(#radial-gradient);}.cls-2,.cls-5,.cls-6{opacity:0.53;}.cls-2{fill:url(#radial-gradient-2);}.cls-3{fill:url(#radial-gradient-3);}.cls-4{fill:url(#radial-gradient-4);}.cls-5{fill:url(#radial-gradient-5);}.cls-6{fill:url(#radial-gradient-6);}.cls-7{fill:url(#radial-gradient-7);}.cls-8{fill:url(#radial-gradient-8);}.cls-9{fill:url(#radial-gradient-9);}.cls-10{fill:url(#radial-gradient-10);}</style><radialGradient id="radial-gradient" cx="172.16" cy="137.77" fx="311.67270098248196" fy="342.3782556017557" r="247.64" gradientTransform="translate(17.38) scale(1.03 1)" gradientUnits="userSpaceOnUse"><stop offset="0" stop-color="#fff"/><stop offset="0" stop-color="#fff" stop-opacity="0.97"/><stop offset="0" stop-color="#feffff" stop-opacity="0.87"/><stop offset="0" stop-color="#fefeff" stop-opacity="0.72"/><stop offset="0" stop-color="#fdfeff" stop-opacity="0.5"/><stop offset="0" stop-color="#fbfdff" stop-opacity="0.24"/><stop offset="0" stop-color="#fafdff" stop-opacity="0"/><stop offset="0.61" stop-color="#40c8f4"/></radialGradient><radialGradient id="radial-gradient-2" cx="-28.53" cy="140.44" r="115.8" gradientTransform="translate(230.24 -30.05) scale(1.42 1.07)" gradientUnits="userSpaceOnUse"><stop offset="0" stop-color="#fff"/><stop offset="0" stop-color="#fafdff"/><stop offset="0.36" stop-color="#e5f3fc"/><stop offset="0.46" stop-color="#dff1fc"/><stop offset="0.65" stop-color="#d9eefb"/><stop offset="0.97" stop-color="#9cd7f5"/></radialGradient><radialGradient id="radial-gradient-3" cx="-811.06" cy="277.74" r="131.93" gradientTransform="matrix(-1.38, 0.26, -0.35, -1.04, -832.54, 651.59)" xlink:href="#radial-gradient-2"/><radialGradient id="radial-gradient-4" cx="656.57" cy="334.38" r="84.95" gradientTransform="matrix(1.42, 0.07, -0.09, 1.07, -697.83, -263.39)" gradientUnits="userSpaceOnUse"><stop offset="0.03" stop-color="#9cd7f5"/><stop offset="0.35" stop-color="#d9eefb"/><stop offset="0.54" stop-color="#dff1fc"/><stop offset="0.64" stop-color="#e5f3fc"/><stop offset="1" stop-color="#fafdff"/><stop offset="1" stop-color="#fff"/></radialGradient><radialGradient id="radial-gradient-5" cx="-745.85" cy="-51.5" r="115.8" gradientTransform="matrix(-0.57, 0.98, -1.3, -0.43, -280.1, 858.93)" xlink:href="#radial-gradient-2"/><radialGradient id="radial-gradient-6" cx="-468.71" cy="698.43" r="115.8" gradientTransform="matrix(-0.64, -0.96, 1.27, -0.48, -1019.58, 29.76)" xlink:href="#radial-gradient-2"/><radialGradient id="radial-gradient-7" cx="3.52" cy="921.63" r="131.93" gradientTransform="matrix(-0.61, -0.97, 1.28, -0.46, -1066.52, 589.04)" xlink:href="#radial-gradient-2"/><radialGradient id="radial-gradient-8" cx="-288.39" cy="392" r="131.93" gradientTransform="matrix(-0.92, 0.82, -1.08, -0.7, 399.32, 690.4)" xlink:href="#radial-gradient-2"/><radialGradient id="radial-gradient-9" cx="667.11" cy="284.42" r="131.93" gradientTransform="matrix(1.42, 0.07, -0.09, 1.07, -697.83, -263.39)" xlink:href="#radial-gradient-2"/><radialGradient id="radial-gradient-10" cx="173.81" cy="142.23" r="247.64" gradientTransform="translate(16.35) scale(1.03 1)" gradientUnits="userSpaceOnUse"><stop offset="0" stop-color="#fff"/><stop offset="0" stop-color="#fff" stop-opacity="0.97"/><stop offset="0" stop-color="#feffff" stop-opacity="0.87"/><stop offset="0" stop-color="#fefeff" stop-opacity="0.72"/><stop offset="0" stop-color="#fdfeff" stop-opacity="0.5"/><stop offset="0" stop-color="#fbfdff" stop-opacity="0.24"/><stop offset="0" stop-color="#fafdff" stop-opacity="0"/><stop offset="0.36" stop-color="#e5f3fc"/><stop offset="0.46" stop-color="#dff1fc"/><stop offset="0.65" stop-color="#d9eefb"/><stop offset="0.97" stop-color="#9cd7f5"/></radialGradient></defs><title>gas</title><path class="cls-1" d="M366.59,72.47S360.81,26.12,293.84,24,289.51-6.88,146.13,17.2c-14.19,2.38-26,4.63-35.91,6.75-1.35.23-2.77.54-4.27.94C86.51,29.26,75.68,33.06,70.5,36.31c-27.72,6.53-23.14-3.25-33.8,23.93,0,0-52.51,26.24-22.42,70.08S-20.53,148.12,78,228.11c63.16,51.3,72.12,42.8,70.42,30.11,3.17-.31,6.9-.71,11.34-1.17,0,0,54.19,24.35,96.56-13.67,34.85-31.28,37-.29,69.81-43.16,17.3,3.25,28.13.74,28.64-16.65.79-26.74,8.14-33.42,9.15-38,7.31-1.52,11.58-6.59,11.89-17.35C377.21,79.11,400.79,97.61,366.59,72.47Z"/><path class="cls-2" d="M304.38,114.29s-7.93-38.51-62.32-37.65-5.67-25.67-120.12,0-37.39,30.8-37.39,30.8S24.49,157.93,88,153.65,118.54,181,182,163.91s136,37.65,133.71-3.42S333.84,134,304.38,114.29Z"/><path class="cls-3" d="M65,180.64s23,40.86,82.74,28.47,15.73,27.17,132.69-25.27,29.94-41.9,29.94-41.9,47.72-68.41-20.8-50.33-43.91-23.81-107.69,8.45S17.76,87.08,35.42,132,25.18,165.09,65,180.64Z"/><path class="cls-4" d="M335.09,138.41s-5.35-44.22-67.27-46.2-4-29.5-136.58-6.53-45.45,33-45.45,33-73.1,54.14-.54,52.73,32.18,32.79,106,16.78,151,50.2,152.36,3.38S366.72,162.38,335.09,138.41Z"/><path class="cls-5" d="M176.82,230.35s49.86,10.07,70.78-27.85,33.39,6.45,48.51-83-22.22-38.27-22.22-38.27S237,19.38,216.54,64.94,171,75,166.12,125.77,65.6,204.5,116.27,219.52,141.08,242.75,176.82,230.35Z"/><path class="cls-6" d="M108.21,66.21s-41.93,22.71-16.38,59S64.05,140.59,146,206.14s53.28,11.3,53.28,11.3,86.76,17.7,53.08-23.14,18.55-33-30.3-68S205.23,17.67,157.71,37.72,118.18,37.47,108.21,66.21Z"/><path class="cls-7" d="M49.51,73.9S1,98.94,28.78,140.76s-32.18,17,58.88,93.29S147.94,248,147.94,248s98.2,21.9,61.27-25.29,22.29-37.18-32.12-78.08S161.72,20.56,106.89,42.46,61.88,41.38,49.51,73.9Z"/><path class="cls-8" d="M163.26,261.66s50.1,23.23,89.28-13,33.68,15.24,88.68-78.71-7.79-47.24-7.79-47.24S319.76,46,277.82,90.78s-54-.17-81.23,54.05S52.93,206.13,101.8,235,118.89,266.43,163.26,261.66Z"/><path class="cls-9" d="M354.55,85.57s-5.35-44.21-67.27-46.19-4-29.5-136.58-6.53-45.45,33-45.45,33-73.1,54.14-.54,52.73,32.18,32.79,106,16.78,151,50.2,152.36,3.38S386.17,109.55,354.55,85.57Z"/><path class="cls-10" d="M366.63,76.92S360.85,30.58,294,28.5s-4.31-30.92-147.44-6.85c-14.17,2.39-26,4.64-35.85,6.76a41.81,41.81,0,0,0-4.25.94c-19.41,4.36-30.22,8.16-35.39,11.41C43.4,47.29,48,37.51,37.33,64.69c0,0-52.42,26.24-22.38,70.08s-34.75,17.8,63.55,97.79c63.05,51.3,72,42.81,70.3,30.12l11.32-1.18s54.09,24.36,96.38-13.66c34.79-31.29,36.95-.3,69.69-43.17,17.27,3.25,28.07.74,28.58-16.65.79-26.73,8.13-33.42,9.14-38,7.29-1.53,11.55-6.59,11.87-17.36C377.22,83.56,400.76,102.06,366.63,76.92Z"/></svg>